PathFileType	4	(X/Y/Z)	C:/Users/opensim2020/Desktop/walking_exp_matlab/subject01_walking09_straight_04.trc	
DataRate	CameraRate	NumFrames	NumMarkers	Units	OrigDataRate	OrigDataStartFrame	OrigNumFrames	
100.00	100.00	7	43	mm	100.00	3887	292	
Frame#	Time	LFHD			RFHD			LBHD			RBHD			C7			T10			CLAV			STRN			RBAK			LSHO			LUPA			LELB			LFRM			LWRA			LWRB			LFIN			RSHO			RUPA			RELB			RFRM			RWRA			RWRB			RFIN			LASI			RASI			LPSI			RPSI			LTHI			LKNE			LTIB			LANK			LHEE			LTOE			RTHI			RKNE			RTIB			RANK			RHEE			RTOE			*39			*40			*41			*42			
		X1	Y1	Z1	X2	Y2	Z2	X3	Y3	Z3	X4	Y4	Z4	X5	Y5	Z5	X6	Y6	Z6	X7	Y7	Z7	X8	Y8	Z8	X9	Y9	Z9	X10	Y10	Z10	X11	Y11	Z11	X12	Y12	Z12	X13	Y13	Z13	X14	Y14	Z14	X15	Y15	Z15	X16	Y16	Z16	X17	Y17	Z17	X18	Y18	Z18	X19	Y19	Z19	X20	Y20	Z20	X21	Y21	Z21	X22	Y22	Z22	X23	Y23	Z23	X24	Y24	Z24	X25	Y25	Z25	X26	Y26	Z26	X27	Y27	Z27	X28	Y28	Z28	X29	Y29	Z29	X30	Y30	Z30	X31	Y31	Z31	X32	Y32	Z32	X33	Y33	Z33	X34	Y34	Z34	X35	Y35	Z35	X36	Y36	Z36	X37	Y37	Z37	X38	Y38	Z38	X39	Y39	Z39	X40	Y40	Z40	X41	Y41	Z41	X42	Y42	Z42	X43	Y43	Z43	

1	0.000	1482.97046	1153.80310	1666.54675	1372.89221	1130.54932	1679.54309	1460.77332	1265.36902	1615.54822	1343.99084	1244.88464	1628.24548	1400.00232	1292.17371	1424.52209	1379.71509	1311.60339	1131.18079	1416.99109	1147.65210	1362.72803	1420.00305	1098.28503	1209.77905	1309.15234	1327.94519	1231.70557	1569.12354	1233.19788	1381.40332	1639.42212	1282.59949	1195.60461	1634.80408	1302.29041	1047.80383	1661.78699	1280.16760	936.98224	1645.87415	1217.08484	812.38519	1668.58911	1273.13940	814.80969	1681.65112	1233.02209	740.34766	1259.09131	1189.94922	1396.75720	1146.39355	1213.99854	1194.44470	1141.16199	1200.06030	1069.64758	1115.60474	1148.44885	959.28156	1149.38672	1053.02991	857.92188	1102.66040	1087.42200	853.40833	1108.70020	1036.31812	785.01434	1496.32788	1139.03516	932.44049	1279.11157	1134.87842	924.62659	1443.30566	1325.49023	943.92969	1298.95496	1320.26086	945.90698	1567.71484	1110.36304	616.22772	1553.11304	1086.92981	485.37711	1573.63452	1105.85754	297.56055	1534.09167	1093.19568	75.69856	1479.03894	1131.14294	43.57207	1544.62341	944.65216	44.45840	1226.35876	1240.09045	598.53265	1248.03479	1269.04163	439.27448	1229.64111	1377.31335	300.46274	1264.69055	1482.38330	117.89179	1305.98840	1547.04980	97.08030	1287.29321	1362.81311	41.36787	1395.57886	1146.02197	1711.33813	-3101.88867	1973.06262	1023.49963	-3140.75439	2012.42871	1022.06195			 
2	0.010	1486.80981	1146.69604	1666.59192	1376.71692	1124.43005	1680.12305	1465.42786	1258.41968	1615.62488	1348.57129	1238.93640	1628.79053	1403.64502	1285.93005	1424.77625	1382.29211	1304.47266	1131.49170	1420.01245	1141.12305	1363.34863	1422.73669	1091.28601	1210.64929	1312.20764	1321.26013	1232.10193	1572.40564	1226.42468	1381.50684	1642.56909	1274.96094	1195.41260	1637.91833	1293.77527	1047.45520	1664.70789	1270.83069	936.69183	1648.62219	1207.02832	812.60846	1671.64685	1263.00647	814.70776	1684.45032	1222.41797	740.38757	1262.32202	1183.69177	1397.69519	1149.56946	1208.59680	1195.58154	1143.89001	1194.78259	1070.94360	1118.08325	1144.06140	960.45703	1151.06604	1049.21057	858.19189	1104.36475	1083.92822	854.04932	1110.04150	1033.87097	785.15259	1498.65735	1131.41724	933.13940	1281.85095	1127.26599	925.12946	1445.45557	1317.94983	944.69214	1300.99304	1312.68823	946.28296	1569.18079	1102.88757	616.76349	1554.47314	1080.61902	484.92621	1575.51599	1101.83008	297.06107	1534.19482	1092.24939	75.50803	1479.32886	1130.79297	43.82339	1544.19067	943.31366	43.23491	1228.65649	1231.05347	598.40594	1249.47119	1259.75732	439.15964	1230.92261	1371.07007	302.49283	1264.76062	1479.58582	121.75136	1306.41382	1544.32861	102.47717	1287.26221	1362.43774	41.48781	1399.71655	1139.83630	1711.64844	-3101.97510	1972.99622	1023.71472	-3140.73877	2012.52893	1021.97192			 
3	0.020	1490.76526	1139.48499	1666.66748	1380.54980	1118.17151	1680.71387	1469.94373	1251.31555	1615.79956	1353.02515	1232.77551	1629.54163	1407.19897	1279.52588	1425.20630	1384.91956	1297.44470	1131.91321	1423.00281	1134.56262	1364.04956	1425.37793	1084.31909	1211.52234	1315.01367	1314.61731	1232.75159	1575.67993	1219.65283	1381.79370	1645.55286	1267.24353	1195.30334	1641.09302	1285.15784	1047.33301	1667.78357	1261.42615	936.76300	1651.42090	1196.79163	813.02533	1674.49634	1252.73767	814.74377	1687.26392	1211.61096	740.60181	1265.43835	1177.65100	1398.79114	1152.46533	1203.46094	1196.92383	1146.77661	1189.57007	1072.33484	1120.43018	1139.62976	961.59338	1152.81262	1045.42798	858.54022	1106.42700	1080.16309	854.63446	1111.54382	1030.83484	785.46741	1501.16541	1124.03125	933.91193	1284.41577	1120.15454	925.56989	1447.54773	1310.56396	945.51459	1303.07214	1305.14453	946.74884	1570.51282	1095.37097	617.04547	1555.96973	1075.05078	484.51141	1576.69543	1098.57397	296.61530	1534.33838	1091.52710	75.42965	1479.55554	1130.57129	43.92798	1543.68176	942.37500	42.19178	1230.77856	1221.57764	598.46844	1250.84131	1249.33875	438.63629	1231.81934	1364.11194	304.60803	1265.11743	1476.20142	126.06033	1307.13953	1540.96826	108.58360	1287.15869	1361.98279	41.65033	1403.83191	1133.37976	1712.14563	-3102.11890	1972.91174	1023.91492	-3140.67236	2012.44604	1021.93243			 
4	0.030	1494.65881	1132.11523	1666.76001	1384.31213	1111.59583	1681.30017	1474.46863	1244.15564	1616.15637	1357.43237	1226.49121	1630.39600	1410.62976	1273.01868	1425.73450	1387.49756	1290.57593	1132.42566	1426.10999	1127.93408	1364.88708	1427.92029	1077.42493	1212.37830	1317.61707	1307.87695	1233.53955	1578.76160	1212.80737	1382.06482	1648.62964	1259.51416	1195.38928	1644.24109	1276.45532	1047.31836	1670.77588	1251.84644	936.89081	1654.03259	1186.43201	813.57526	1677.29541	1242.29333	814.95117	1690.08997	1200.66162	741.09735	1268.65271	1171.43274	1399.81396	1155.20642	1198.29480	1198.39172	1149.71252	1184.40002	1073.80322	1122.75281	1135.36719	962.75433	1154.48413	1041.79468	858.95819	1107.94128	1077.14929	855.45001	1113.01819	1027.93762	785.78992	1503.89587	1116.78418	934.81873	1287.25085	1112.86353	926.27356	1449.71570	1303.30847	946.30597	1305.18335	1297.71582	947.35748	1571.94275	1088.32861	617.17163	1557.37598	1069.91711	484.12317	1577.49268	1095.40076	296.39340	1534.20874	1090.92871	75.37745	1479.53882	1130.28711	43.75277	1543.56165	941.67725	41.51525	1232.57776	1211.58032	598.15808	1252.08130	1238.21619	438.44073	1233.16101	1356.83850	307.39236	1265.48401	1472.36597	130.85999	1308.18481	1536.96008	115.39749	1287.16528	1361.45654	41.70507	1407.91162	1126.59155	1712.68323	-3102.05957	1973.07922	1023.34351	-3140.75049	2012.56763	1022.13739			 
5	0.040	1498.49719	1124.66797	1666.84912	1388.00305	1104.95313	1681.81238	1478.86707	1236.94360	1616.59790	1361.75024	1220.14502	1631.38586	1414.10889	1266.52246	1426.40088	1390.11304	1283.80298	1133.04919	1428.92175	1121.41870	1365.63477	1430.46362	1070.62000	1213.25256	1320.20911	1301.29553	1234.48596	1581.91333	1205.98169	1382.55347	1651.57251	1251.68811	1195.47375	1647.35669	1267.73438	1047.39014	1673.74341	1242.16040	937.17664	1656.81323	1175.89038	814.35303	1680.33667	1231.71301	815.35394	1692.90747	1189.45923	741.67627	1271.72705	1165.34167	1401.04810	1157.98279	1192.91321	1199.91992	1152.63867	1179.41479	1075.27454	1125.10754	1131.08044	963.98242	1156.26062	1038.35144	859.48138	1109.62170	1074.09082	856.34656	1114.59314	1024.98877	786.21350	1506.51062	1109.74792	935.63275	1290.10474	1106.30444	926.94464	1451.99744	1296.16846	947.01288	1307.39136	1290.45325	947.98462	1573.30957	1082.49805	616.88153	1558.81030	1065.27869	484.00650	1578.04175	1092.40942	296.20306	1534.18982	1090.55981	75.49220	1479.55566	1130.21082	43.79569	1543.56274	941.16644	40.96967	1234.80493	1201.12244	598.14056	1253.25305	1226.23047	438.23535	1234.59912	1348.76489	310.54785	1265.87122	1468.22021	136.30833	1309.48083	1531.91199	122.86188	1287.10474	1360.79480	41.63494	1411.94653	1119.61902	1713.17944	-3102.01685	1973.01917	1023.22095	-3140.67993	2012.56677	1021.98877			 
6	0.050	1502.25769	1117.17407	1666.97620	1391.68530	1098.18958	1682.32690	1483.10437	1229.68701	1617.08691	1365.84216	1213.48755	1632.35034	1417.49475	1260.03589	1427.09143	1392.74719	1277.10925	1133.70361	1431.86218	1114.83215	1366.38904	1432.91504	1063.98584	1214.04797	1322.81384	1294.77905	1235.44446	1584.88806	1199.14417	1382.99255	1654.70496	1243.90149	1195.76367	1650.47815	1258.97900	1047.56934	1676.77637	1232.42432	937.55176	1659.52063	1165.26221	815.23901	1683.04883	1221.02185	815.76031	1695.72351	1178.17310	742.47980	1274.98669	1159.19043	1402.18738	1160.48889	1187.54370	1201.53198	1155.56140	1174.55835	1076.68250	1127.49915	1127.03394	965.19824	1157.90271	1034.64673	859.94934	1111.62585	1070.52600	857.16638	1116.02722	1021.84558	786.69757	1509.40881	1102.84668	936.57355	1293.03210	1099.57153	927.79535	1454.34607	1289.24377	947.61707	1309.69470	1283.42969	948.67712	1575.06323	1077.50330	616.94324	1560.22388	1060.87878	483.85498	1578.66638	1089.52698	296.03207	1534.07166	1090.22803	75.39117	1479.66431	1130.31848	44.05068	1543.43164	940.82129	40.50795	1236.76514	1190.49402	598.21637	1254.20276	1213.46204	438.20862	1236.19189	1339.40759	313.63782	1266.93579	1462.47119	141.88387	1311.24426	1526.01355	130.70575	1287.34521	1359.89111	41.50937	1415.88855	1112.51172	1713.68274	-3101.94946	1973.02283	1023.92053	-3140.73242	2012.53162	1022.09723			 
7	0.060	1505.85535	1109.65796	1667.09045	1395.32581	1091.05408	1682.86548	1487.13806	1222.42212	1617.67285	1369.85327	1206.85376	1633.36084	1420.74976	1253.56543	1427.72864	1395.44434	1270.60547	1134.39832	1434.63147	1108.34119	1367.14172	1435.32300	1057.40588	1214.81030	1325.49207	1288.28784	1236.35535	1587.82690	1192.24280	1383.48975	1657.73315	1235.95081	1196.00293	1653.52747	1250.21069	1047.74243	1679.69312	1222.56311	937.88947	1662.12708	1154.46582	816.19031	1685.71338	1209.98828	816.14429	1698.67725	1166.77673	743.47369	1277.93677	1152.90186	1403.15063	1162.85510	1182.09668	1203.13074	1158.16675	1169.77991	1078.05969	1129.76453	1123.00476	966.33942	1159.75940	1031.32751	860.40253	1113.28638	1067.45581	858.04083	1117.93506	1019.49506	786.85840	1512.20349	1096.09583	937.29657	1295.95618	1093.72522	928.62616	1456.78809	1282.46436	948.17065	1312.10205	1276.64929	949.29639	1576.81409	1073.16516	616.58441	1561.51624	1056.75232	483.47369	1579.35278	1087.18372	295.87842	1534.12561	1090.05261	75.52992	1479.65918	1130.31421	44.09489	1543.34656	940.56818	40.26645	1238.74670	1178.65527	597.90002	1255.02869	1199.86890	437.73517	1237.39783	1329.42480	316.72418	1268.25684	1456.24548	147.76797	1313.49768	1519.15027	138.95349	1288.11218	1358.69495	41.75557	1419.68274	1105.32751	1714.05383	-3102.04980	1973.02539	1023.69287	-3140.68335	2012.52515	1021.95380			 
